# xmcd
#
# Track frame offsets: 
#        187
#        16725
#        35057
#        63510
#        75857
#        89695
#        102945
#        123112
#        135495
#        155335
#        167620
#        187127
#        206135
#
# Disc length: 2996 seconds
#
# Revision: 4
# Processed by: cddbd v1.5.2PL0 Copyright (c) Steve Scherf et al.
# Submitted via: ExactAudioCopy v1.0b2
#
DISCID=a50bb20d
DTITLE=Johnny Winter - Let Me In
DYEAR=1991
DGENRE=Blues
TTITLE0=Illustrated Man
TTITLE1=Barefootin'
TTITLE2=Life Is Hard
TTITLE3=Hey You
TTITLE4=Blue Mood
TTITLE5=Sugaree
TTITLE6=Medicine Man
TTITLE7=You're Humbuggin' Me
TTITLE8=If You Got A Good Woman
TTITLE9=Got To Find My Baby
TTITLE10=Shame Shame Shame
TTITLE11=Let Me In
TTITLE12=You Lie Too Much
EXTD=YEAR: 1991
EXTT0=
EXTT1=
EXTT2=
EXTT3=
EXTT4=
EXTT5=
EXTT6=
EXTT7=
EXTT8=
EXTT9=
EXTT10=
EXTT11=
EXTT12=
PLAYORDER=
